<?xml version="1.0" encoding="utf-8"?>
<!-- Generator: Adobe Illustrator 19.2.1, SVG Export Plug-In . SVG Version: 6.00 Build 0)  -->
<svg version="1.1" id="Logo" xmlns="http://www.w3.org/2000/svg" xmlns:xlink="http://www.w3.org/1999/xlink" x="0px" y="0px"
	 viewBox="0 0 128 128" style="enable-background:new 0 0 128 128;" xml:space="preserve">
<style type="text/css">
	.st0{fill:#1F5E8B;}
</style>
<path class="st0" d="M12.2,78.1c5.3,8.8,12.8,15.4,21.8,22.2c24.6,18.7,49.1,14.2,58.7,4.5c0,0,2.9-3.5,9.2-1.6
	c4.4,1.4,10.2,6.4,12.3,8.8c2.1-9.8-0.7-20.1-7.3-27.2c7.6-22.8-4.1-53.3-29.2-72.6c11,18,14.5,37.8,6.9,53.6
	c-17-11.9-50.5-43.8-50.5-43.8s15.7,25.9,27.6,38.5c-11.9-7.8-18.3-13.3-39.2-32.2c14.2,25.4,38.6,48.4,47.4,56.4
	C43.3,100.3,12.2,78.1,12.2,78.1z"/>
</svg>
