<?xml version="1.0" encoding="utf-8"?>
<svg version="1.1" id="SwiftLogo" xmlns="http://www.w3.org/2000/svg" xmlns:xlink="http://www.w3.org/1999/xlink" x="0px" y="0px"
	 viewBox="0 0 200 100" style="enable-background:new 0 0 200 100;" xml:space="preserve">
<style type="text/css">
	.st0{opacity:3.000000e-02;}
</style>
<path class="st0" d="M4.5,37.4c2.9,4.4,7,7.7,11.9,11.2c13.4,9.4,26.8,7.1,32,2.3c0,0,1.6-1.8,5-0.8c2.4,0.7,5.5,3.2,6.7,4.4
	c1.1-4.9-0.4-10.1-4-13.7c4.1-11.5-2.2-26.8-15.9-36.5c6,9.1,7.9,19,3.8,26.9c-9.3-6-27.5-22-27.5-22s8.6,13,15.1,19.4
	c-6.5-3.9-10-6.7-21.4-16.2C17.9,25.2,31.2,36.8,36,40.8C21.5,48.6,4.5,37.4,4.5,37.4z"/>
<path class="st0" d="M137.9,75.5c2.9,4.4,7,7.7,11.9,11.2c13.4,9.4,26.8,7.1,32,2.3c0,0,1.6-1.8,5-0.8c2.4,0.7,5.5,3.2,6.7,4.4
	c1.1-4.9-0.4-10.1-4-13.7c4.1-11.5-2.2-26.8-15.9-36.5c6,9.1,7.9,19,3.8,26.9c-9.3-6-27.5-22-27.5-22s8.6,13,15.1,19.4
	c-6.5-3.9-10-6.7-21.4-16.2c7.8,12.8,21.1,24.3,25.9,28.3C154.8,86.6,137.9,75.5,137.9,75.5z"/>
</svg>
